<svg width="204" height="54" viewBox="0 0 204 54" fill="none" xmlns="http://www.w3.org/2000/svg">
<path d="M11.62 2.55H7.13V15H4.8V2.55H0.3V0.599999H11.62V2.55ZM13.1447 6.69C13.4647 6.04333 13.8514 5.53667 14.3047 5.17C14.758 4.79667 15.3014 4.61 15.9347 4.61C16.1547 4.61 16.3614 4.63667 16.5547 4.69C16.748 4.73667 16.9214 4.81 17.0747 4.91L16.9247 6.53C16.898 6.64333 16.8547 6.72333 16.7947 6.77C16.7414 6.81 16.668 6.83 16.5747 6.83C16.4747 6.83 16.3314 6.81333 16.1447 6.78C15.958 6.74 15.7614 6.72 15.5547 6.72C15.2547 6.72 14.988 6.76333 14.7547 6.85C14.528 6.93667 14.3214 7.06333 14.1347 7.23C13.9547 7.39667 13.7947 7.6 13.6547 7.84C13.5147 8.08 13.3847 8.35333 13.2647 8.66V15H11.1147V4.8H12.3647C12.5914 4.8 12.748 4.84333 12.8347 4.93C12.9214 5.01 12.9814 5.15333 13.0147 5.36L13.1447 6.69ZM27.0975 4.8V15H25.7975C25.5108 15 25.3275 14.8633 25.2475 14.59L25.0875 13.64C24.8742 13.8667 24.6475 14.0733 24.4075 14.26C24.1742 14.4467 23.9242 14.6067 23.6575 14.74C23.3908 14.8733 23.1042 14.9767 22.7975 15.05C22.4975 15.1233 22.1742 15.16 21.8275 15.16C21.2675 15.16 20.7742 15.0667 20.3475 14.88C19.9208 14.6933 19.5608 14.43 19.2675 14.09C18.9808 13.75 18.7642 13.3433 18.6175 12.87C18.4708 12.39 18.3975 11.8633 18.3975 11.29V4.8H20.5475V11.29C20.5475 11.9767 20.7042 12.51 21.0175 12.89C21.3375 13.27 21.8208 13.46 22.4675 13.46C22.9408 13.46 23.3808 13.3533 23.7875 13.14C24.2008 12.92 24.5875 12.62 24.9475 12.24V4.8H27.0975ZM35.7984 6.65C35.7451 6.74333 35.6851 6.81 35.6184 6.85C35.5518 6.89 35.4684 6.91 35.3684 6.91C35.2551 6.91 35.1318 6.87667 34.9984 6.81C34.8651 6.73667 34.7084 6.65667 34.5284 6.57C34.3484 6.48333 34.1351 6.40667 33.8884 6.34C33.6484 6.26667 33.3651 6.23 33.0384 6.23C32.7718 6.23 32.5284 6.26333 32.3084 6.33C32.0951 6.39 31.9118 6.48 31.7584 6.6C31.6118 6.71333 31.4984 6.85 31.4184 7.01C31.3384 7.16333 31.2984 7.33 31.2984 7.51C31.2984 7.75 31.3718 7.95 31.5184 8.11C31.6651 8.27 31.8584 8.41 32.0984 8.53C32.3384 8.64333 32.6118 8.74667 32.9184 8.84C33.2251 8.93333 33.5384 9.03333 33.8584 9.14C34.1784 9.24667 34.4918 9.37 34.7984 9.51C35.1051 9.65 35.3784 9.82333 35.6184 10.03C35.8584 10.23 36.0518 10.4767 36.1984 10.77C36.3451 11.0567 36.4184 11.4067 36.4184 11.82C36.4184 12.3 36.3318 12.7433 36.1584 13.15C35.9851 13.5567 35.7318 13.91 35.3984 14.21C35.0651 14.51 34.6484 14.7433 34.1484 14.91C33.6551 15.0767 33.0884 15.16 32.4484 15.16C32.0951 15.16 31.7518 15.1267 31.4184 15.06C31.0918 15 30.7784 14.9167 30.4784 14.81C30.1851 14.6967 29.9084 14.5633 29.6484 14.41C29.3951 14.2567 29.1684 14.09 28.9684 13.91L29.4684 13.09C29.5284 12.99 29.6018 12.9133 29.6884 12.86C29.7818 12.8 29.8951 12.77 30.0284 12.77C30.1684 12.77 30.3051 12.8167 30.4384 12.91C30.5784 12.9967 30.7384 13.0933 30.9184 13.2C31.1051 13.3067 31.3284 13.4067 31.5884 13.5C31.8484 13.5867 32.1718 13.63 32.5584 13.63C32.8784 13.63 33.1551 13.5933 33.3884 13.52C33.6218 13.44 33.8151 13.3333 33.9684 13.2C34.1218 13.0667 34.2351 12.9167 34.3084 12.75C34.3818 12.5767 34.4184 12.3933 34.4184 12.2C34.4184 11.94 34.3451 11.7267 34.1984 11.56C34.0518 11.3933 33.8551 11.25 33.6084 11.13C33.3684 11.01 33.0918 10.9033 32.7784 10.81C32.4718 10.7167 32.1584 10.6167 31.8384 10.51C31.5184 10.4033 31.2018 10.28 30.8884 10.14C30.5818 10 30.3051 9.82333 30.0584 9.61C29.8184 9.39 29.6251 9.12667 29.4784 8.82C29.3318 8.50667 29.2584 8.12667 29.2584 7.68C29.2584 7.27333 29.3384 6.88667 29.4984 6.52C29.6651 6.15333 29.9051 5.83 30.2184 5.55C30.5384 5.27 30.9284 5.05 31.3884 4.89C31.8551 4.72333 32.3918 4.64 32.9984 4.64C33.6851 4.64 34.3084 4.75 34.8684 4.97C35.4284 5.19 35.8984 5.49 36.2784 5.87L35.7984 6.65ZM41.7089 15.16C40.8622 15.16 40.2089 14.9233 39.7489 14.45C39.2956 13.97 39.0689 13.2967 39.0689 12.43V6.49H37.9489C37.8289 6.49 37.7256 6.45333 37.6389 6.38C37.5522 6.3 37.5089 6.18333 37.5089 6.03V5.16L39.1589 4.92L39.6289 1.97C39.6622 1.85667 39.7189 1.76667 39.7989 1.7C39.8789 1.62667 39.9856 1.59 40.1189 1.59H41.2189V4.94H44.0489V6.49H41.2189V12.28C41.2189 12.6467 41.3089 12.9267 41.4889 13.12C41.6689 13.3133 41.9089 13.41 42.2089 13.41C42.3756 13.41 42.5189 13.39 42.6389 13.35C42.7589 13.3033 42.8622 13.2567 42.9489 13.21C43.0356 13.1567 43.1089 13.11 43.1689 13.07C43.2356 13.0233 43.2989 13 43.3589 13C43.4789 13 43.5756 13.0667 43.6489 13.2L44.2889 14.25C43.9556 14.5433 43.5622 14.77 43.1089 14.93C42.6556 15.0833 42.1889 15.16 41.7089 15.16ZM52.3555 8.75C52.3555 8.39 52.3021 8.05667 52.1955 7.75C52.0955 7.43667 51.9455 7.16667 51.7455 6.94C51.5455 6.70667 51.2955 6.52667 50.9955 6.4C50.7021 6.26667 50.3621 6.2 49.9755 6.2C49.1955 6.2 48.5821 6.42333 48.1355 6.87C47.6888 7.31667 47.4055 7.94333 47.2855 8.75H52.3555ZM47.2255 10.07C47.2521 10.65 47.3421 11.1533 47.4955 11.58C47.6488 12 47.8521 12.35 48.1055 12.63C48.3655 12.91 48.6721 13.12 49.0255 13.26C49.3855 13.3933 49.7855 13.46 50.2255 13.46C50.6455 13.46 51.0088 13.4133 51.3155 13.32C51.6221 13.22 51.8888 13.1133 52.1155 13C52.3421 12.88 52.5355 12.7733 52.6955 12.68C52.8555 12.58 53.0021 12.53 53.1355 12.53C53.3088 12.53 53.4421 12.5967 53.5355 12.73L54.1455 13.52C53.8921 13.82 53.6055 14.0733 53.2855 14.28C52.9655 14.4867 52.6255 14.6567 52.2655 14.79C51.9055 14.9167 51.5355 15.0067 51.1555 15.06C50.7755 15.12 50.4055 15.15 50.0455 15.15C49.3388 15.15 48.6821 15.0333 48.0755 14.8C47.4755 14.56 46.9521 14.21 46.5055 13.75C46.0655 13.29 45.7188 12.72 45.4655 12.04C45.2188 11.36 45.0955 10.5767 45.0955 9.69C45.0955 8.98333 45.2055 8.32333 45.4255 7.71C45.6521 7.09667 45.9721 6.56333 46.3855 6.11C46.8055 5.65667 47.3121 5.3 47.9055 5.04C48.5055 4.77333 49.1821 4.64 49.9355 4.64C50.5621 4.64 51.1421 4.74333 51.6755 4.95C52.2088 5.15 52.6688 5.44667 53.0555 5.84C53.4421 6.23333 53.7421 6.71667 53.9555 7.29C54.1755 7.85667 54.2855 8.50333 54.2855 9.23C54.2855 9.56333 54.2488 9.78667 54.1755 9.9C54.1021 10.0133 53.9688 10.07 53.7755 10.07H47.2255ZM62.8005 7.31C62.5005 6.92333 62.1705 6.65333 61.8105 6.5C61.4505 6.34667 61.0605 6.27 60.6405 6.27C59.8005 6.27 59.1438 6.58 58.6705 7.2C58.1971 7.81333 57.9605 8.72333 57.9605 9.93C57.9605 10.5567 58.0138 11.0933 58.1205 11.54C58.2271 11.98 58.3805 12.34 58.5805 12.62C58.7805 12.9 59.0238 13.1033 59.3105 13.23C59.5971 13.3567 59.9205 13.42 60.2805 13.42C60.8271 13.42 61.2971 13.3033 61.6905 13.07C62.0905 12.83 62.4605 12.4933 62.8005 12.06V7.31ZM64.9505 0.2V15H63.6505C63.3638 15 63.1805 14.8633 63.1005 14.59L62.9105 13.48C62.4838 13.98 61.9971 14.3833 61.4505 14.69C60.9105 14.9967 60.2805 15.15 59.5605 15.15C58.9871 15.15 58.4671 15.0367 58.0005 14.81C57.5338 14.5767 57.1338 14.24 56.8005 13.8C56.4671 13.36 56.2071 12.8167 56.0205 12.17C55.8405 11.5167 55.7505 10.77 55.7505 9.93C55.7505 9.17 55.8505 8.46667 56.0505 7.82C56.2571 7.17333 56.5505 6.61333 56.9305 6.14C57.3105 5.66 57.7705 5.28667 58.3105 5.02C58.8571 4.74667 59.4671 4.61 60.1405 4.61C60.7405 4.61 61.2505 4.70667 61.6705 4.9C62.0905 5.08667 62.4671 5.35 62.8005 5.69V0.2H64.9505ZM74.71 12.44C75.01 12.8267 75.3367 13.1 75.69 13.26C76.05 13.4133 76.44 13.49 76.86 13.49C77.7067 13.49 78.3667 13.1833 78.84 12.57C79.3133 11.9567 79.55 11.0067 79.55 9.72C79.55 8.54667 79.3433 7.69 78.93 7.15C78.5233 6.61 77.94 6.34 77.18 6.34C76.6533 6.34 76.1933 6.46 75.8 6.7C75.4133 6.93333 75.05 7.27 74.71 7.71V12.44ZM74.71 6.15C75.13 5.69 75.6 5.32333 76.12 5.05C76.64 4.77667 77.2333 4.64 77.9 4.64C78.4933 4.64 79.0267 4.75667 79.5 4.99C79.98 5.21667 80.3867 5.54667 80.72 5.98C81.0533 6.41333 81.31 6.94 81.49 7.56C81.67 8.17333 81.76 8.86667 81.76 9.64C81.76 10.4667 81.6567 11.22 81.45 11.9C81.25 12.5733 80.96 13.1533 80.58 13.64C80.2 14.12 79.74 14.4933 79.2 14.76C78.66 15.02 78.0567 15.15 77.39 15.15C77.0633 15.15 76.7667 15.1167 76.5 15.05C76.2333 14.99 75.9867 14.9 75.76 14.78C75.5333 14.66 75.3233 14.5167 75.13 14.35C74.9433 14.1833 74.7633 13.9933 74.59 13.78L74.5 14.57C74.4667 14.7233 74.4067 14.8333 74.32 14.9C74.2333 14.9667 74.1133 15 73.96 15H72.56V0.2H74.71V6.15ZM92.6256 4.8L87.0056 17.9C86.9323 18.0533 86.8423 18.1733 86.7356 18.26C86.6356 18.3467 86.479 18.39 86.2656 18.39H84.6756L86.5556 14.31L82.3956 4.8H84.2656C84.4456 4.8 84.5823 4.84333 84.6756 4.93C84.7756 5.01 84.849 5.10667 84.8956 5.22L87.3256 11.01C87.3856 11.1767 87.439 11.3433 87.4856 11.51C87.539 11.67 87.589 11.8367 87.6356 12.01C87.689 11.8367 87.7423 11.6667 87.7956 11.5C87.849 11.3333 87.909 11.1667 87.9756 11L90.3056 5.22C90.3523 5.1 90.429 5 90.5356 4.92C90.649 4.84 90.7723 4.8 90.9056 4.8H92.6256ZM101.787 15.16C100.94 15.16 100.287 14.9233 99.827 14.45C99.3737 13.97 99.147 13.2967 99.147 12.43V6.49H98.027C97.907 6.49 97.8037 6.45333 97.717 6.38C97.6304 6.3 97.587 6.18333 97.587 6.03V5.16L99.237 4.92L99.707 1.97C99.7404 1.85667 99.797 1.76667 99.877 1.7C99.957 1.62667 100.064 1.59 100.197 1.59H101.297V4.94H104.127V6.49H101.297V12.28C101.297 12.6467 101.387 12.9267 101.567 13.12C101.747 13.3133 101.987 13.41 102.287 13.41C102.454 13.41 102.597 13.39 102.717 13.35C102.837 13.3033 102.94 13.2567 103.027 13.21C103.114 13.1567 103.187 13.11 103.247 13.07C103.314 13.0233 103.377 13 103.437 13C103.557 13 103.654 13.0667 103.727 13.2L104.367 14.25C104.034 14.5433 103.64 14.77 103.187 14.93C102.734 15.0833 102.267 15.16 101.787 15.16ZM107.972 6.01C108.392 5.59667 108.852 5.26667 109.352 5.02C109.852 4.76667 110.435 4.64 111.102 4.64C111.662 4.64 112.152 4.73333 112.572 4.92C112.998 5.10667 113.355 5.37 113.642 5.71C113.935 6.05 114.155 6.46 114.302 6.94C114.448 7.41333 114.522 7.93667 114.522 8.51V15H112.382V8.51C112.382 7.82333 112.222 7.29 111.902 6.91C111.588 6.53 111.108 6.34 110.462 6.34C109.982 6.34 109.535 6.45 109.122 6.67C108.715 6.89 108.332 7.19 107.972 7.57V15H105.822V0.2H107.972V6.01ZM121.443 4.64C122.196 4.64 122.876 4.76333 123.483 5.01C124.096 5.25667 124.616 5.60667 125.043 6.06C125.476 6.51333 125.809 7.06333 126.043 7.71C126.276 8.35667 126.393 9.08333 126.393 9.89C126.393 10.6967 126.276 11.4233 126.043 12.07C125.809 12.7167 125.476 13.27 125.043 13.73C124.616 14.1833 124.096 14.5333 123.483 14.78C122.876 15.0267 122.196 15.15 121.443 15.15C120.683 15.15 119.996 15.0267 119.383 14.78C118.776 14.5333 118.256 14.1833 117.823 13.73C117.389 13.27 117.056 12.7167 116.823 12.07C116.589 11.4233 116.473 10.6967 116.473 9.89C116.473 9.08333 116.589 8.35667 116.823 7.71C117.056 7.06333 117.389 6.51333 117.823 6.06C118.256 5.60667 118.776 5.25667 119.383 5.01C119.996 4.76333 120.683 4.64 121.443 4.64ZM121.443 13.47C122.363 13.47 123.046 13.1633 123.493 12.55C123.946 11.93 124.173 11.0467 124.173 9.9C124.173 8.75333 123.946 7.87 123.493 7.25C123.046 6.62333 122.363 6.31 121.443 6.31C120.509 6.31 119.816 6.62333 119.363 7.25C118.909 7.87 118.683 8.75333 118.683 9.9C118.683 11.0467 118.909 11.93 119.363 12.55C119.816 13.1633 120.509 13.47 121.443 13.47ZM137.058 4.8V15H135.758C135.472 15 135.288 14.8633 135.208 14.59L135.048 13.64C134.835 13.8667 134.608 14.0733 134.368 14.26C134.135 14.4467 133.885 14.6067 133.618 14.74C133.352 14.8733 133.065 14.9767 132.758 15.05C132.458 15.1233 132.135 15.16 131.788 15.16C131.228 15.16 130.735 15.0667 130.308 14.88C129.882 14.6933 129.522 14.43 129.228 14.09C128.942 13.75 128.725 13.3433 128.578 12.87C128.432 12.39 128.358 11.8633 128.358 11.29V4.8H130.508V11.29C130.508 11.9767 130.665 12.51 130.978 12.89C131.298 13.27 131.782 13.46 132.428 13.46C132.902 13.46 133.342 13.3533 133.748 13.14C134.162 12.92 134.548 12.62 134.908 12.24V4.8H137.058ZM145.759 6.65C145.706 6.74333 145.646 6.81 145.579 6.85C145.513 6.89 145.429 6.91 145.329 6.91C145.216 6.91 145.093 6.87667 144.959 6.81C144.826 6.73667 144.669 6.65667 144.489 6.57C144.309 6.48333 144.096 6.40667 143.849 6.34C143.609 6.26667 143.326 6.23 142.999 6.23C142.733 6.23 142.489 6.26333 142.269 6.33C142.056 6.39 141.873 6.48 141.719 6.6C141.573 6.71333 141.459 6.85 141.379 7.01C141.299 7.16333 141.259 7.33 141.259 7.51C141.259 7.75 141.333 7.95 141.479 8.11C141.626 8.27 141.819 8.41 142.059 8.53C142.299 8.64333 142.573 8.74667 142.879 8.84C143.186 8.93333 143.499 9.03333 143.819 9.14C144.139 9.24667 144.453 9.37 144.759 9.51C145.066 9.65 145.339 9.82333 145.579 10.03C145.819 10.23 146.013 10.4767 146.159 10.77C146.306 11.0567 146.379 11.4067 146.379 11.82C146.379 12.3 146.293 12.7433 146.119 13.15C145.946 13.5567 145.693 13.91 145.359 14.21C145.026 14.51 144.609 14.7433 144.109 14.91C143.616 15.0767 143.049 15.16 142.409 15.16C142.056 15.16 141.713 15.1267 141.379 15.06C141.053 15 140.739 14.9167 140.439 14.81C140.146 14.6967 139.869 14.5633 139.609 14.41C139.356 14.2567 139.129 14.09 138.929 13.91L139.429 13.09C139.489 12.99 139.563 12.9133 139.649 12.86C139.743 12.8 139.856 12.77 139.989 12.77C140.129 12.77 140.266 12.8167 140.399 12.91C140.539 12.9967 140.699 13.0933 140.879 13.2C141.066 13.3067 141.289 13.4067 141.549 13.5C141.809 13.5867 142.133 13.63 142.519 13.63C142.839 13.63 143.116 13.5933 143.349 13.52C143.583 13.44 143.776 13.3333 143.929 13.2C144.083 13.0667 144.196 12.9167 144.269 12.75C144.343 12.5767 144.379 12.3933 144.379 12.2C144.379 11.94 144.306 11.7267 144.159 11.56C144.013 11.3933 143.816 11.25 143.569 11.13C143.329 11.01 143.053 10.9033 142.739 10.81C142.433 10.7167 142.119 10.6167 141.799 10.51C141.479 10.4033 141.163 10.28 140.849 10.14C140.543 10 140.266 9.82333 140.019 9.61C139.779 9.39 139.586 9.12667 139.439 8.82C139.293 8.50667 139.219 8.12667 139.219 7.68C139.219 7.27333 139.299 6.88667 139.459 6.52C139.626 6.15333 139.866 5.83 140.179 5.55C140.499 5.27 140.889 5.05 141.349 4.89C141.816 4.72333 142.353 4.64 142.959 4.64C143.646 4.64 144.269 4.75 144.829 4.97C145.389 5.19 145.859 5.49 146.239 5.87L145.759 6.65ZM153.85 10.54C153.083 10.5667 152.437 10.63 151.91 10.73C151.383 10.8233 150.957 10.9467 150.63 11.1C150.303 11.2467 150.067 11.4233 149.92 11.63C149.78 11.8367 149.71 12.0633 149.71 12.31C149.71 12.55 149.747 12.7567 149.82 12.93C149.9 13.0967 150.007 13.2367 150.14 13.35C150.28 13.4567 150.44 13.5367 150.62 13.59C150.807 13.6367 151.01 13.66 151.23 13.66C151.79 13.66 152.27 13.5567 152.67 13.35C153.077 13.1367 153.47 12.83 153.85 12.43V10.54ZM148.15 6.22C149.303 5.14667 150.677 4.61 152.27 4.61C152.857 4.61 153.377 4.70667 153.83 4.9C154.29 5.08667 154.673 5.35333 154.98 5.7C155.293 6.04667 155.53 6.46 155.69 6.94C155.857 7.41333 155.94 7.94 155.94 8.52V15H154.98C154.773 15 154.617 14.97 154.51 14.91C154.403 14.8433 154.313 14.7133 154.24 14.52L154.03 13.69C153.77 13.9233 153.513 14.1333 153.26 14.32C153.007 14.5 152.743 14.6533 152.47 14.78C152.203 14.9067 151.913 15 151.6 15.06C151.293 15.1267 150.953 15.16 150.58 15.16C150.167 15.16 149.78 15.1033 149.42 14.99C149.067 14.8767 148.76 14.7067 148.5 14.48C148.24 14.2467 148.033 13.96 147.88 13.62C147.733 13.28 147.66 12.88 147.66 12.42C147.66 12.0267 147.763 11.6433 147.97 11.27C148.183 10.8967 148.53 10.5633 149.01 10.27C149.497 9.97 150.133 9.72333 150.92 9.53C151.713 9.33667 152.69 9.22667 153.85 9.2V8.52C153.85 7.78667 153.693 7.24 153.38 6.88C153.067 6.52 152.607 6.34 152 6.34C151.587 6.34 151.24 6.39333 150.96 6.5C150.68 6.6 150.437 6.71 150.23 6.83C150.023 6.95 149.84 7.06333 149.68 7.17C149.52 7.27 149.35 7.32 149.17 7.32C149.023 7.32 148.897 7.28333 148.79 7.21C148.69 7.13 148.607 7.03333 148.54 6.92L148.15 6.22ZM160.468 6.15C160.688 5.92333 160.915 5.72 161.148 5.54C161.388 5.35333 161.642 5.19333 161.908 5.06C162.175 4.92667 162.458 4.82333 162.758 4.75C163.058 4.67667 163.385 4.64 163.738 4.64C164.298 4.64 164.788 4.73333 165.208 4.92C165.635 5.10667 165.992 5.37 166.278 5.71C166.572 6.05 166.792 6.46 166.938 6.94C167.085 7.41333 167.158 7.93667 167.158 8.51V15H165.018V8.51C165.018 7.82333 164.858 7.29 164.538 6.91C164.225 6.53 163.745 6.34 163.098 6.34C162.618 6.34 162.172 6.45 161.758 6.67C161.352 6.89 160.968 7.19 160.608 7.57V15H158.458V4.8H159.758C160.052 4.8 160.238 4.93667 160.318 5.21L160.468 6.15ZM176.179 7.31C175.879 6.92333 175.549 6.65333 175.189 6.5C174.829 6.34667 174.439 6.27 174.019 6.27C173.179 6.27 172.523 6.58 172.049 7.2C171.576 7.81333 171.339 8.72333 171.339 9.93C171.339 10.5567 171.393 11.0933 171.499 11.54C171.606 11.98 171.759 12.34 171.959 12.62C172.159 12.9 172.403 13.1033 172.689 13.23C172.976 13.3567 173.299 13.42 173.659 13.42C174.206 13.42 174.676 13.3033 175.069 13.07C175.469 12.83 175.839 12.4933 176.179 12.06V7.31ZM178.329 0.2V15H177.029C176.743 15 176.559 14.8633 176.479 14.59L176.289 13.48C175.863 13.98 175.376 14.3833 174.829 14.69C174.289 14.9967 173.659 15.15 172.939 15.15C172.366 15.15 171.846 15.0367 171.379 14.81C170.913 14.5767 170.513 14.24 170.179 13.8C169.846 13.36 169.586 12.8167 169.399 12.17C169.219 11.5167 169.129 10.77 169.129 9.93C169.129 9.17 169.229 8.46667 169.429 7.82C169.636 7.17333 169.929 6.61333 170.309 6.14C170.689 5.66 171.149 5.28667 171.689 5.02C172.236 4.74667 172.846 4.61 173.519 4.61C174.119 4.61 174.629 4.70667 175.049 4.9C175.469 5.08667 175.846 5.35 176.179 5.69V0.2H178.329ZM187.048 6.65C186.995 6.74333 186.935 6.81 186.868 6.85C186.802 6.89 186.718 6.91 186.618 6.91C186.505 6.91 186.382 6.87667 186.248 6.81C186.115 6.73667 185.958 6.65667 185.778 6.57C185.598 6.48333 185.385 6.40667 185.138 6.34C184.898 6.26667 184.615 6.23 184.288 6.23C184.022 6.23 183.778 6.26333 183.558 6.33C183.345 6.39 183.162 6.48 183.008 6.6C182.862 6.71333 182.748 6.85 182.668 7.01C182.588 7.16333 182.548 7.33 182.548 7.51C182.548 7.75 182.622 7.95 182.768 8.11C182.915 8.27 183.108 8.41 183.348 8.53C183.588 8.64333 183.862 8.74667 184.168 8.84C184.475 8.93333 184.788 9.03333 185.108 9.14C185.428 9.24667 185.742 9.37 186.048 9.51C186.355 9.65 186.628 9.82333 186.868 10.03C187.108 10.23 187.302 10.4767 187.448 10.77C187.595 11.0567 187.668 11.4067 187.668 11.82C187.668 12.3 187.582 12.7433 187.408 13.15C187.235 13.5567 186.982 13.91 186.648 14.21C186.315 14.51 185.898 14.7433 185.398 14.91C184.905 15.0767 184.338 15.16 183.698 15.16C183.345 15.16 183.002 15.1267 182.668 15.06C182.342 15 182.028 14.9167 181.728 14.81C181.435 14.6967 181.158 14.5633 180.898 14.41C180.645 14.2567 180.418 14.09 180.218 13.91L180.718 13.09C180.778 12.99 180.852 12.9133 180.938 12.86C181.032 12.8 181.145 12.77 181.278 12.77C181.418 12.77 181.555 12.8167 181.688 12.91C181.828 12.9967 181.988 13.0933 182.168 13.2C182.355 13.3067 182.578 13.4067 182.838 13.5C183.098 13.5867 183.422 13.63 183.808 13.63C184.128 13.63 184.405 13.5933 184.638 13.52C184.872 13.44 185.065 13.3333 185.218 13.2C185.372 13.0667 185.485 12.9167 185.558 12.75C185.632 12.5767 185.668 12.3933 185.668 12.2C185.668 11.94 185.595 11.7267 185.448 11.56C185.302 11.3933 185.105 11.25 184.858 11.13C184.618 11.01 184.342 10.9033 184.028 10.81C183.722 10.7167 183.408 10.6167 183.088 10.51C182.768 10.4033 182.452 10.28 182.138 10.14C181.832 10 181.555 9.82333 181.308 9.61C181.068 9.39 180.875 9.12667 180.728 8.82C180.582 8.50667 180.508 8.12667 180.508 7.68C180.508 7.27333 180.588 6.88667 180.748 6.52C180.915 6.15333 181.155 5.83 181.468 5.55C181.788 5.27 182.178 5.05 182.638 4.89C183.105 4.72333 183.642 4.64 184.248 4.64C184.935 4.64 185.558 4.75 186.118 4.97C186.678 5.19 187.148 5.49 187.528 5.87L187.048 6.65ZM8.52 41.8C8.45333 41.8867 8.39 41.9533 8.33 42C8.27 42.0467 8.18333 42.07 8.07 42.07C7.95667 42.07 7.83667 42.03 7.71 41.95C7.59 41.87 7.44333 41.7833 7.27 41.69C7.10333 41.59 6.9 41.5 6.66 41.42C6.42 41.34 6.12 41.3 5.76 41.3C5.29333 41.3 4.88333 41.3833 4.53 41.55C4.18333 41.7167 3.89 41.9567 3.65 42.27C3.41667 42.5767 3.24 42.9533 3.12 43.4C3.00667 43.84 2.95 44.3367 2.95 44.89C2.95 45.4633 3.01333 45.9733 3.14 46.42C3.26667 46.8667 3.44667 47.2433 3.68 47.55C3.92 47.8567 4.20667 48.09 4.54 48.25C4.88 48.41 5.26 48.49 5.68 48.49C6.09333 48.49 6.43 48.44 6.69 48.34C6.95 48.24 7.16667 48.13 7.34 48.01C7.51333 47.89 7.66 47.78 7.78 47.68C7.90667 47.58 8.04 47.53 8.18 47.53C8.35333 47.53 8.48667 47.5967 8.58 47.73L9.19 48.52C8.94333 48.82 8.67 49.0733 8.37 49.28C8.07 49.4867 7.75333 49.6567 7.42 49.79C7.08667 49.9167 6.74 50.0067 6.38 50.06C6.02 50.12 5.65667 50.15 5.29 50.15C4.65667 50.15 4.06333 50.0333 3.51 49.8C2.96333 49.56 2.48333 49.2167 2.07 48.77C1.66333 48.3167 1.34 47.7667 1.1 47.12C0.866667 46.4667 0.75 45.7233 0.75 44.89C0.75 44.1367 0.856667 43.44 1.07 42.8C1.28333 42.1533 1.59333 41.5967 2 41.13C2.41333 40.6633 2.92333 40.3 3.53 40.04C4.13667 39.7733 4.83667 39.64 5.63 39.64C6.37 39.64 7.02 39.76 7.58 40C8.14667 40.24 8.65 40.58 9.09 41.02L8.52 41.8ZM15.1536 39.64C15.9069 39.64 16.5869 39.7633 17.1936 40.01C17.8069 40.2567 18.3269 40.6067 18.7536 41.06C19.1869 41.5133 19.5203 42.0633 19.7536 42.71C19.9869 43.3567 20.1036 44.0833 20.1036 44.89C20.1036 45.6967 19.9869 46.4233 19.7536 47.07C19.5203 47.7167 19.1869 48.27 18.7536 48.73C18.3269 49.1833 17.8069 49.5333 17.1936 49.78C16.5869 50.0267 15.9069 50.15 15.1536 50.15C14.3936 50.15 13.7069 50.0267 13.0936 49.78C12.4869 49.5333 11.9669 49.1833 11.5336 48.73C11.1003 48.27 10.7669 47.7167 10.5336 47.07C10.3003 46.4233 10.1836 45.6967 10.1836 44.89C10.1836 44.0833 10.3003 43.3567 10.5336 42.71C10.7669 42.0633 11.1003 41.5133 11.5336 41.06C11.9669 40.6067 12.4869 40.2567 13.0936 40.01C13.7069 39.7633 14.3936 39.64 15.1536 39.64ZM15.1536 48.47C16.0736 48.47 16.7569 48.1633 17.2036 47.55C17.6569 46.93 17.8836 46.0467 17.8836 44.9C17.8836 43.7533 17.6569 42.87 17.2036 42.25C16.7569 41.6233 16.0736 41.31 15.1536 41.31C14.2203 41.31 13.5269 41.6233 13.0736 42.25C12.6203 42.87 12.3936 43.7533 12.3936 44.9C12.3936 46.0467 12.6203 46.93 13.0736 47.55C13.5269 48.1633 14.2203 48.47 15.1536 48.47ZM22.1694 50V39.8H23.4694C23.7627 39.8 23.9494 39.9367 24.0294 40.21L24.1694 41.1C24.356 40.8867 24.5494 40.6933 24.7494 40.52C24.9494 40.34 25.1627 40.1867 25.3894 40.06C25.6227 39.9267 25.8694 39.8233 26.1294 39.75C26.396 39.6767 26.6827 39.64 26.9894 39.64C27.316 39.64 27.616 39.6867 27.8894 39.78C28.1627 39.8733 28.4027 40.0067 28.6094 40.18C28.8227 40.3533 29.006 40.5633 29.1594 40.81C29.3127 41.0567 29.4394 41.3333 29.5394 41.64C29.6927 41.2867 29.886 40.9833 30.1194 40.73C30.3527 40.4767 30.6127 40.27 30.8994 40.11C31.186 39.95 31.4894 39.8333 31.8094 39.76C32.136 39.68 32.466 39.64 32.7994 39.64C33.346 39.64 33.8327 39.7267 34.2594 39.9C34.6927 40.0733 35.056 40.3267 35.3494 40.66C35.6494 40.9867 35.876 41.39 36.0294 41.87C36.1827 42.35 36.2594 42.8967 36.2594 43.51V50H34.1094V43.51C34.1094 42.79 33.9527 42.25 33.6394 41.89C33.3327 41.5233 32.876 41.34 32.2694 41.34C31.996 41.34 31.7394 41.3867 31.4994 41.48C31.2594 41.5733 31.0494 41.71 30.8694 41.89C30.6894 42.07 30.546 42.2967 30.4394 42.57C30.3394 42.8367 30.2894 43.15 30.2894 43.51V50H28.1394V43.51C28.1394 42.7633 27.9894 42.2167 27.6894 41.87C27.3894 41.5167 26.9494 41.34 26.3694 41.34C25.9694 41.34 25.5994 41.4433 25.2594 41.65C24.9194 41.85 24.606 42.1267 24.3194 42.48V50H22.1694ZM40.9209 47.44C41.2209 47.8267 41.5476 48.1 41.9009 48.26C42.2609 48.4133 42.6576 48.49 43.0909 48.49C43.9309 48.49 44.5843 48.1833 45.0509 47.57C45.5243 46.9567 45.7609 46.0433 45.7609 44.83C45.7609 44.2033 45.7076 43.67 45.6009 43.23C45.4943 42.7833 45.3409 42.42 45.1409 42.14C44.9409 41.86 44.6976 41.6567 44.4109 41.53C44.1243 41.4033 43.8009 41.34 43.4409 41.34C42.8943 41.34 42.4209 41.46 42.0209 41.7C41.6276 41.9333 41.2609 42.27 40.9209 42.71V47.44ZM40.8109 41.28C41.2376 40.78 41.7209 40.3767 42.2609 40.07C42.8076 39.7633 43.4409 39.61 44.1609 39.61C44.7343 39.61 45.2543 39.7267 45.7209 39.96C46.1876 40.1867 46.5876 40.52 46.9209 40.96C47.2543 41.4 47.5109 41.9467 47.6909 42.6C47.8776 43.2467 47.9709 43.99 47.9709 44.83C47.9709 45.5833 47.8676 46.2867 47.6609 46.94C47.4609 47.5867 47.1709 48.15 46.7909 48.63C46.4109 49.1033 45.9509 49.4767 45.4109 49.75C44.8709 50.0167 44.2609 50.15 43.5809 50.15C42.9809 50.15 42.4709 50.0533 42.0509 49.86C41.6376 49.6667 41.2609 49.4 40.9209 49.06V53.39H38.7709V39.8H40.0709C40.3643 39.8 40.5509 39.9367 40.6309 40.21L40.8109 41.28ZM55.51 45.54C54.7433 45.5667 54.0967 45.63 53.57 45.73C53.0433 45.8233 52.6167 45.9467 52.29 46.1C51.9633 46.2467 51.7267 46.4233 51.58 46.63C51.44 46.8367 51.37 47.0633 51.37 47.31C51.37 47.55 51.4067 47.7567 51.48 47.93C51.56 48.0967 51.6667 48.2367 51.8 48.35C51.94 48.4567 52.1 48.5367 52.28 48.59C52.4667 48.6367 52.67 48.66 52.89 48.66C53.45 48.66 53.93 48.5567 54.33 48.35C54.7367 48.1367 55.13 47.83 55.51 47.43V45.54ZM49.81 41.22C50.9633 40.1467 52.3367 39.61 53.93 39.61C54.5167 39.61 55.0367 39.7067 55.49 39.9C55.95 40.0867 56.3333 40.3533 56.64 40.7C56.9533 41.0467 57.19 41.46 57.35 41.94C57.5167 42.4133 57.6 42.94 57.6 43.52V50H56.64C56.4333 50 56.2767 49.97 56.17 49.91C56.0633 49.8433 55.9733 49.7133 55.9 49.52L55.69 48.69C55.43 48.9233 55.1733 49.1333 54.92 49.32C54.6667 49.5 54.4033 49.6533 54.13 49.78C53.8633 49.9067 53.5733 50 53.26 50.06C52.9533 50.1267 52.6133 50.16 52.24 50.16C51.8267 50.16 51.44 50.1033 51.08 49.99C50.7267 49.8767 50.42 49.7067 50.16 49.48C49.9 49.2467 49.6933 48.96 49.54 48.62C49.3933 48.28 49.32 47.88 49.32 47.42C49.32 47.0267 49.4233 46.6433 49.63 46.27C49.8433 45.8967 50.19 45.5633 50.67 45.27C51.1567 44.97 51.7933 44.7233 52.58 44.53C53.3733 44.3367 54.35 44.2267 55.51 44.2V43.52C55.51 42.7867 55.3533 42.24 55.04 41.88C54.7267 41.52 54.2667 41.34 53.66 41.34C53.2467 41.34 52.9 41.3933 52.62 41.5C52.34 41.6 52.0967 41.71 51.89 41.83C51.6833 41.95 51.5 42.0633 51.34 42.17C51.18 42.27 51.01 42.32 50.83 42.32C50.6833 42.32 50.5567 42.2833 50.45 42.21C50.35 42.13 50.2667 42.0333 50.2 41.92L49.81 41.22ZM62.1286 41.15C62.3486 40.9233 62.5753 40.72 62.8086 40.54C63.0486 40.3533 63.3019 40.1933 63.5686 40.06C63.8353 39.9267 64.1186 39.8233 64.4186 39.75C64.7186 39.6767 65.0453 39.64 65.3986 39.64C65.9586 39.64 66.4486 39.7333 66.8686 39.92C67.2953 40.1067 67.6519 40.37 67.9386 40.71C68.2319 41.05 68.4519 41.46 68.5986 41.94C68.7453 42.4133 68.8186 42.9367 68.8186 43.51V50H66.6786V43.51C66.6786 42.8233 66.5186 42.29 66.1986 41.91C65.8853 41.53 65.4053 41.34 64.7586 41.34C64.2786 41.34 63.8319 41.45 63.4186 41.67C63.0119 41.89 62.6286 42.19 62.2686 42.57V50H60.1186V39.8H61.4186C61.7119 39.8 61.8986 39.9367 61.9786 40.21L62.1286 41.15ZM73.5695 39.8V50H71.4195V39.8H73.5695ZM73.9295 36.72C73.9295 36.9133 73.8895 37.0967 73.8095 37.27C73.7362 37.4433 73.6329 37.5967 73.4995 37.73C73.3662 37.8567 73.2095 37.96 73.0295 38.04C72.8562 38.1133 72.6695 38.15 72.4695 38.15C72.2762 38.15 72.0929 38.1133 71.9195 38.04C71.7529 37.96 71.6062 37.8567 71.4795 37.73C71.3529 37.5967 71.2495 37.4433 71.1695 37.27C71.0962 37.0967 71.0595 36.9133 71.0595 36.72C71.0595 36.52 71.0962 36.3333 71.1695 36.16C71.2495 35.9867 71.3529 35.8367 71.4795 35.71C71.6062 35.5767 71.7529 35.4733 71.9195 35.4C72.0929 35.32 72.2762 35.28 72.4695 35.28C72.6695 35.28 72.8562 35.32 73.0295 35.4C73.2095 35.4733 73.3662 35.5767 73.4995 35.71C73.6329 35.8367 73.7362 35.9867 73.8095 36.16C73.8895 36.3333 73.9295 36.52 73.9295 36.72ZM82.9609 43.75C82.9609 43.39 82.9076 43.0567 82.8009 42.75C82.7009 42.4367 82.5509 42.1667 82.3509 41.94C82.1509 41.7067 81.9009 41.5267 81.6009 41.4C81.3076 41.2667 80.9676 41.2 80.5809 41.2C79.8009 41.2 79.1876 41.4233 78.7409 41.87C78.2943 42.3167 78.0109 42.9433 77.8909 43.75H82.9609ZM77.8309 45.07C77.8576 45.65 77.9476 46.1533 78.1009 46.58C78.2543 47 78.4576 47.35 78.7109 47.63C78.9709 47.91 79.2776 48.12 79.6309 48.26C79.9909 48.3933 80.3909 48.46 80.8309 48.46C81.2509 48.46 81.6143 48.4133 81.9209 48.32C82.2276 48.22 82.4943 48.1133 82.7209 48C82.9476 47.88 83.1409 47.7733 83.3009 47.68C83.4609 47.58 83.6076 47.53 83.7409 47.53C83.9143 47.53 84.0476 47.5967 84.1409 47.73L84.7509 48.52C84.4976 48.82 84.2109 49.0733 83.8909 49.28C83.5709 49.4867 83.2309 49.6567 82.8709 49.79C82.5109 49.9167 82.1409 50.0067 81.7609 50.06C81.3809 50.12 81.0109 50.15 80.6509 50.15C79.9443 50.15 79.2876 50.0333 78.6809 49.8C78.0809 49.56 77.5576 49.21 77.1109 48.75C76.6709 48.29 76.3243 47.72 76.0709 47.04C75.8243 46.36 75.7009 45.5767 75.7009 44.69C75.7009 43.9833 75.8109 43.3233 76.0309 42.71C76.2576 42.0967 76.5776 41.5633 76.9909 41.11C77.4109 40.6567 77.9176 40.3 78.5109 40.04C79.1109 39.7733 79.7876 39.64 80.5409 39.64C81.1676 39.64 81.7476 39.7433 82.2809 39.95C82.8143 40.15 83.2743 40.4467 83.6609 40.84C84.0476 41.2333 84.3476 41.7167 84.5609 42.29C84.7809 42.8567 84.8909 43.5033 84.8909 44.23C84.8909 44.5633 84.8543 44.7867 84.7809 44.9C84.7076 45.0133 84.5743 45.07 84.3809 45.07H77.8309ZM92.9859 41.65C92.9326 41.7433 92.8726 41.81 92.8059 41.85C92.7393 41.89 92.6559 41.91 92.5559 41.91C92.4426 41.91 92.3193 41.8767 92.1859 41.81C92.0526 41.7367 91.8959 41.6567 91.7159 41.57C91.5359 41.4833 91.3226 41.4067 91.0759 41.34C90.8359 41.2667 90.5526 41.23 90.2259 41.23C89.9593 41.23 89.7159 41.2633 89.4959 41.33C89.2826 41.39 89.0993 41.48 88.9459 41.6C88.7993 41.7133 88.6859 41.85 88.6059 42.01C88.5259 42.1633 88.4859 42.33 88.4859 42.51C88.4859 42.75 88.5593 42.95 88.7059 43.11C88.8526 43.27 89.0459 43.41 89.2859 43.53C89.5259 43.6433 89.7993 43.7467 90.1059 43.84C90.4126 43.9333 90.7259 44.0333 91.0459 44.14C91.3659 44.2467 91.6793 44.37 91.9859 44.51C92.2926 44.65 92.5659 44.8233 92.8059 45.03C93.0459 45.23 93.2393 45.4767 93.3859 45.77C93.5326 46.0567 93.6059 46.4067 93.6059 46.82C93.6059 47.3 93.5193 47.7433 93.3459 48.15C93.1726 48.5567 92.9193 48.91 92.5859 49.21C92.2526 49.51 91.8359 49.7433 91.3359 49.91C90.8426 50.0767 90.2759 50.16 89.6359 50.16C89.2826 50.16 88.9393 50.1267 88.6059 50.06C88.2793 50 87.9659 49.9167 87.6659 49.81C87.3726 49.6967 87.0959 49.5633 86.8359 49.41C86.5826 49.2567 86.3559 49.09 86.1559 48.91L86.6559 48.09C86.7159 47.99 86.7893 47.9133 86.8759 47.86C86.9693 47.8 87.0826 47.77 87.2159 47.77C87.3559 47.77 87.4926 47.8167 87.6259 47.91C87.7659 47.9967 87.9259 48.0933 88.1059 48.2C88.2926 48.3067 88.5159 48.4067 88.7759 48.5C89.0359 48.5867 89.3593 48.63 89.7459 48.63C90.0659 48.63 90.3426 48.5933 90.5759 48.52C90.8093 48.44 91.0026 48.3333 91.1559 48.2C91.3093 48.0667 91.4226 47.9167 91.4959 47.75C91.5693 47.5767 91.6059 47.3933 91.6059 47.2C91.6059 46.94 91.5326 46.7267 91.3859 46.56C91.2393 46.3933 91.0426 46.25 90.7959 46.13C90.5559 46.01 90.2793 45.9033 89.9659 45.81C89.6593 45.7167 89.3459 45.6167 89.0259 45.51C88.7059 45.4033 88.3893 45.28 88.0759 45.14C87.7693 45 87.4926 44.8233 87.2459 44.61C87.0059 44.39 86.8126 44.1267 86.6659 43.82C86.5193 43.5067 86.4459 43.1267 86.4459 42.68C86.4459 42.2733 86.5259 41.8867 86.6859 41.52C86.8526 41.1533 87.0926 40.83 87.4059 40.55C87.7259 40.27 88.1159 40.05 88.5759 39.89C89.0426 39.7233 89.5793 39.64 90.1859 39.64C90.8726 39.64 91.4959 39.75 92.0559 39.97C92.6159 40.19 93.0859 40.49 93.4659 40.87L92.9859 41.65ZM102.847 39.8V50H100.697V39.8H102.847ZM103.207 36.72C103.207 36.9133 103.167 37.0967 103.087 37.27C103.014 37.4433 102.91 37.5967 102.777 37.73C102.644 37.8567 102.487 37.96 102.307 38.04C102.134 38.1133 101.947 38.15 101.747 38.15C101.554 38.15 101.37 38.1133 101.197 38.04C101.03 37.96 100.884 37.8567 100.757 37.73C100.63 37.5967 100.527 37.4433 100.447 37.27C100.374 37.0967 100.337 36.9133 100.337 36.72C100.337 36.52 100.374 36.3333 100.447 36.16C100.527 35.9867 100.63 35.8367 100.757 35.71C100.884 35.5767 101.03 35.4733 101.197 35.4C101.37 35.32 101.554 35.28 101.747 35.28C101.947 35.28 102.134 35.32 102.307 35.4C102.487 35.4733 102.644 35.5767 102.777 35.71C102.91 35.8367 103.014 35.9867 103.087 36.16C103.167 36.3333 103.207 36.52 103.207 36.72ZM107.558 41.15C107.778 40.9233 108.005 40.72 108.238 40.54C108.478 40.3533 108.732 40.1933 108.998 40.06C109.265 39.9267 109.548 39.8233 109.848 39.75C110.148 39.6767 110.475 39.64 110.828 39.64C111.388 39.64 111.878 39.7333 112.298 39.92C112.725 40.1067 113.082 40.37 113.368 40.71C113.662 41.05 113.882 41.46 114.028 41.94C114.175 42.4133 114.248 42.9367 114.248 43.51V50H112.108V43.51C112.108 42.8233 111.948 42.29 111.628 41.91C111.315 41.53 110.835 41.34 110.188 41.34C109.708 41.34 109.262 41.45 108.848 41.67C108.442 41.89 108.058 42.19 107.698 42.57V50H105.548V39.8H106.848C107.142 39.8 107.328 39.9367 107.408 40.21L107.558 41.15ZM125.01 50.16C124.163 50.16 123.51 49.9233 123.05 49.45C122.596 48.97 122.37 48.2967 122.37 47.43V41.49H121.25C121.13 41.49 121.026 41.4533 120.94 41.38C120.853 41.3 120.81 41.1833 120.81 41.03V40.16L122.46 39.92L122.93 36.97C122.963 36.8567 123.02 36.7667 123.1 36.7C123.18 36.6267 123.286 36.59 123.42 36.59H124.52V39.94H127.35V41.49H124.52V47.28C124.52 47.6467 124.61 47.9267 124.79 48.12C124.97 48.3133 125.21 48.41 125.51 48.41C125.676 48.41 125.82 48.39 125.94 48.35C126.06 48.3033 126.163 48.2567 126.25 48.21C126.336 48.1567 126.41 48.11 126.47 48.07C126.536 48.0233 126.6 48 126.66 48C126.78 48 126.876 48.0667 126.95 48.2L127.59 49.25C127.256 49.5433 126.863 49.77 126.41 49.93C125.956 50.0833 125.49 50.16 125.01 50.16ZM131.194 41.01C131.614 40.5967 132.074 40.2667 132.574 40.02C133.074 39.7667 133.658 39.64 134.324 39.64C134.884 39.64 135.374 39.7333 135.794 39.92C136.221 40.1067 136.578 40.37 136.864 40.71C137.158 41.05 137.378 41.46 137.524 41.94C137.671 42.4133 137.744 42.9367 137.744 43.51V50H135.604V43.51C135.604 42.8233 135.444 42.29 135.124 41.91C134.811 41.53 134.331 41.34 133.684 41.34C133.204 41.34 132.758 41.45 132.344 41.67C131.938 41.89 131.554 42.19 131.194 42.57V50H129.044V35.2H131.194V41.01ZM146.945 43.75C146.945 43.39 146.892 43.0567 146.785 42.75C146.685 42.4367 146.535 42.1667 146.335 41.94C146.135 41.7067 145.885 41.5267 145.585 41.4C145.292 41.2667 144.952 41.2 144.565 41.2C143.785 41.2 143.172 41.4233 142.725 41.87C142.279 42.3167 141.995 42.9433 141.875 43.75H146.945ZM141.815 45.07C141.842 45.65 141.932 46.1533 142.085 46.58C142.239 47 142.442 47.35 142.695 47.63C142.955 47.91 143.262 48.12 143.615 48.26C143.975 48.3933 144.375 48.46 144.815 48.46C145.235 48.46 145.599 48.4133 145.905 48.32C146.212 48.22 146.479 48.1133 146.705 48C146.932 47.88 147.125 47.7733 147.285 47.68C147.445 47.58 147.592 47.53 147.725 47.53C147.899 47.53 148.032 47.5967 148.125 47.73L148.735 48.52C148.482 48.82 148.195 49.0733 147.875 49.28C147.555 49.4867 147.215 49.6567 146.855 49.79C146.495 49.9167 146.125 50.0067 145.745 50.06C145.365 50.12 144.995 50.15 144.635 50.15C143.929 50.15 143.272 50.0333 142.665 49.8C142.065 49.56 141.542 49.21 141.095 48.75C140.655 48.29 140.309 47.72 140.055 47.04C139.809 46.36 139.685 45.5767 139.685 44.69C139.685 43.9833 139.795 43.3233 140.015 42.71C140.242 42.0967 140.562 41.5633 140.975 41.11C141.395 40.6567 141.902 40.3 142.495 40.04C143.095 39.7733 143.772 39.64 144.525 39.64C145.152 39.64 145.732 39.7433 146.265 39.95C146.799 40.15 147.259 40.4467 147.645 40.84C148.032 41.2333 148.332 41.7167 148.545 42.29C148.765 42.8567 148.875 43.5033 148.875 44.23C148.875 44.5633 148.839 44.7867 148.765 44.9C148.692 45.0133 148.559 45.07 148.365 45.07H141.815ZM169.781 39.8L166.511 50H164.801C164.601 50 164.461 49.87 164.381 49.61L162.351 43.26C162.297 43.08 162.247 42.9 162.201 42.72C162.161 42.54 162.124 42.3633 162.091 42.19C162.017 42.55 161.927 42.91 161.821 43.27L159.761 49.61C159.687 49.87 159.531 50 159.291 50H157.661L154.391 39.8H156.091C156.257 39.8 156.394 39.8433 156.501 39.93C156.614 40.01 156.687 40.1067 156.721 40.22L158.421 46.16C158.487 46.4333 158.544 46.7 158.591 46.96C158.644 47.2133 158.691 47.4667 158.731 47.72C158.797 47.4667 158.867 47.2133 158.941 46.96C159.014 46.7 159.091 46.4333 159.171 46.16L161.081 40.19C161.114 40.07 161.181 39.9733 161.281 39.9C161.387 39.82 161.514 39.78 161.661 39.78H162.601C162.754 39.78 162.884 39.82 162.991 39.9C163.097 39.9733 163.167 40.07 163.201 40.19L165.061 46.16C165.141 46.4333 165.214 46.7 165.281 46.96C165.354 47.22 165.421 47.48 165.481 47.74C165.527 47.4867 165.577 47.23 165.631 46.97C165.684 46.71 165.747 46.44 165.821 46.16L167.551 40.22C167.591 40.1 167.664 40 167.771 39.92C167.877 39.84 168.007 39.8 168.161 39.8H169.781ZM175.603 39.64C176.356 39.64 177.036 39.7633 177.643 40.01C178.256 40.2567 178.776 40.6067 179.203 41.06C179.636 41.5133 179.969 42.0633 180.203 42.71C180.436 43.3567 180.553 44.0833 180.553 44.89C180.553 45.6967 180.436 46.4233 180.203 47.07C179.969 47.7167 179.636 48.27 179.203 48.73C178.776 49.1833 178.256 49.5333 177.643 49.78C177.036 50.0267 176.356 50.15 175.603 50.15C174.843 50.15 174.156 50.0267 173.543 49.78C172.936 49.5333 172.416 49.1833 171.983 48.73C171.549 48.27 171.216 47.7167 170.983 47.07C170.749 46.4233 170.633 45.6967 170.633 44.89C170.633 44.0833 170.749 43.3567 170.983 42.71C171.216 42.0633 171.549 41.5133 171.983 41.06C172.416 40.6067 172.936 40.2567 173.543 40.01C174.156 39.7633 174.843 39.64 175.603 39.64ZM175.603 48.47C176.523 48.47 177.206 48.1633 177.653 47.55C178.106 46.93 178.333 46.0467 178.333 44.9C178.333 43.7533 178.106 42.87 177.653 42.25C177.206 41.6233 176.523 41.31 175.603 41.31C174.669 41.31 173.976 41.6233 173.523 42.25C173.069 42.87 172.843 43.7533 172.843 44.9C172.843 46.0467 173.069 46.93 173.523 47.55C173.976 48.1633 174.669 48.47 175.603 48.47ZM184.649 41.69C184.969 41.0433 185.355 40.5367 185.809 40.17C186.262 39.7967 186.805 39.61 187.439 39.61C187.659 39.61 187.865 39.6367 188.059 39.69C188.252 39.7367 188.425 39.81 188.579 39.91L188.429 41.53C188.402 41.6433 188.359 41.7233 188.299 41.77C188.245 41.81 188.172 41.83 188.079 41.83C187.979 41.83 187.835 41.8133 187.649 41.78C187.462 41.74 187.265 41.72 187.059 41.72C186.759 41.72 186.492 41.7633 186.259 41.85C186.032 41.9367 185.825 42.0633 185.639 42.23C185.459 42.3967 185.299 42.6 185.159 42.84C185.019 43.08 184.889 43.3533 184.769 43.66V50H182.619V39.8H183.869C184.095 39.8 184.252 39.8433 184.339 39.93C184.425 40.01 184.485 40.1533 184.519 40.36L184.649 41.69ZM192.191 35.2V50H190.041V35.2H192.191ZM201.355 42.31C201.055 41.9233 200.725 41.6533 200.365 41.5C200.005 41.3467 199.615 41.27 199.195 41.27C198.355 41.27 197.698 41.58 197.225 42.2C196.752 42.8133 196.515 43.7233 196.515 44.93C196.515 45.5567 196.568 46.0933 196.675 46.54C196.782 46.98 196.935 47.34 197.135 47.62C197.335 47.9 197.578 48.1033 197.865 48.23C198.152 48.3567 198.475 48.42 198.835 48.42C199.382 48.42 199.852 48.3033 200.245 48.07C200.645 47.83 201.015 47.4933 201.355 47.06V42.31ZM203.505 35.2V50H202.205C201.918 50 201.735 49.8633 201.655 49.59L201.465 48.48C201.038 48.98 200.552 49.3833 200.005 49.69C199.465 49.9967 198.835 50.15 198.115 50.15C197.542 50.15 197.022 50.0367 196.555 49.81C196.088 49.5767 195.688 49.24 195.355 48.8C195.022 48.36 194.762 47.8167 194.575 47.17C194.395 46.5167 194.305 45.77 194.305 44.93C194.305 44.17 194.405 43.4667 194.605 42.82C194.812 42.1733 195.105 41.6133 195.485 41.14C195.865 40.66 196.325 40.2867 196.865 40.02C197.412 39.7467 198.022 39.61 198.695 39.61C199.295 39.61 199.805 39.7067 200.225 39.9C200.645 40.0867 201.022 40.35 201.355 40.69V35.2H203.505Z" fill="white" fill-opacity="0.73"/>
</svg>
